<svg width="94" height="110" viewBox="0 0 94 110" fill="none" xmlns="http://www.w3.org/2000/svg">
<path fill-rule="evenodd" clip-rule="evenodd" d="M45.5272 108.699C46.127 109.012 46.7977 109.172 47.4685 109.166C48.1392 109.161 48.8045 108.996 49.4098 108.678L68.7358 98.3467C74.2163 95.4253 78.5079 92.1587 81.8561 88.3556C89.1361 80.0694 93.1115 69.494 93.0406 58.5893L92.8115 22.6191C92.7897 18.476 90.0686 14.7791 86.0442 13.4353L50.0915 1.37265C47.9266 0.639648 45.5544 0.655582 43.4277 1.40983L7.61132 13.9027C3.6087 15.2997 0.936648 19.0231 0.958461 23.1715L1.18749 59.1151C1.25838 70.0358 5.37007 80.5634 12.77 88.7645C16.151 92.5145 20.4808 95.7334 26.0212 98.607L45.5272 108.699ZM40.4111 66.4234C41.2182 67.1989 42.2652 67.5813 43.3122 67.5707C44.3592 67.5654 45.4008 67.1723 46.1969 66.3862L67.317 45.5647C68.9039 43.9978 68.8876 41.4801 67.2843 39.9344C65.6756 38.3887 63.0854 38.3994 61.4985 39.9663L43.2522 57.9514L35.7814 50.7701C34.1727 49.2244 31.5879 49.2403 29.9956 50.8073C28.4087 52.3742 28.4251 54.8919 30.0338 56.4376L40.4111 66.4234Z" fill="url(#paint0_linear_7_124)"/>
<defs>
<linearGradient id="paint0_linear_7_124" x1="-22" y1="-13.5" x2="115" y2="190.5" gradientUnits="userSpaceOnUse">
<stop stop-color="#B8FEF6"/>
<stop offset="1" stop-color="#56E8D8"/>
</linearGradient>
</defs>
</svg>
