<svg width="194" height="42" viewBox="0 0 194 42" fill="none" xmlns="http://www.w3.org/2000/svg">
<path d="M63.208 21.104H67.312V23.888H63.208V27.968H60.424V23.888H56.344V21.104H60.424V17.024H63.208V21.104ZM81.6655 18.44C82.2895 18.44 82.8975 18.576 83.4895 18.848C84.0815 19.104 84.6095 19.464 85.0735 19.928C85.5375 20.392 85.9055 20.952 86.1775 21.608C86.4655 22.264 86.6095 22.984 86.6095 23.768C86.6095 24.584 86.4495 25.336 86.1295 26.024C85.8095 26.712 85.3775 27.304 84.8335 27.8C84.3055 28.296 83.6895 28.688 82.9855 28.976C82.2975 29.248 81.5695 29.384 80.8015 29.384C79.9055 29.384 79.0975 29.232 78.3775 28.928C77.6575 28.608 77.0335 28.192 76.5055 27.68C75.9935 27.152 75.5935 26.544 75.3055 25.856C75.0335 25.152 74.8975 24.416 74.8975 23.648C74.8975 22.544 75.1135 21.536 75.5455 20.624C75.9935 19.696 76.5535 18.752 77.2255 17.792L81.2095 12.104L83.6335 13.784L80.2735 18.536L80.3935 18.68C80.7615 18.52 81.1855 18.44 81.6655 18.44ZM80.7535 26.48C81.1055 26.48 81.4495 26.416 81.7855 26.288C82.1215 26.16 82.4175 25.976 82.6735 25.736C82.9295 25.496 83.1295 25.216 83.2735 24.896C83.4335 24.56 83.5135 24.192 83.5135 23.792C83.5135 23.392 83.4335 23.024 83.2735 22.688C83.1295 22.352 82.9295 22.064 82.6735 21.824C82.4175 21.584 82.1215 21.4 81.7855 21.272C81.4495 21.144 81.1055 21.08 80.7535 21.08C80.3855 21.08 80.0335 21.144 79.6975 21.272C79.3775 21.4 79.0815 21.584 78.8095 21.824C78.5535 22.064 78.3455 22.352 78.1855 22.688C78.0415 23.024 77.9695 23.392 77.9695 23.792C77.9695 24.192 78.0415 24.56 78.1855 24.896C78.3455 25.216 78.5535 25.496 78.8095 25.736C79.0815 25.976 79.3775 26.16 79.6975 26.288C80.0335 26.416 80.3855 26.48 80.7535 26.48ZM88.6821 29V26.144C89.6261 25.216 90.4981 24.352 91.2981 23.552C91.6341 23.216 91.9781 22.872 92.3301 22.52C92.6821 22.168 93.0101 21.84 93.3141 21.536C93.6181 21.232 93.8901 20.96 94.1301 20.72C94.3701 20.464 94.5541 20.264 94.6821 20.12C94.9381 19.816 95.1621 19.544 95.3541 19.304C95.5621 19.064 95.7221 18.832 95.8341 18.608C95.9621 18.368 96.0581 18.136 96.1221 17.912C96.1861 17.672 96.2181 17.416 96.2181 17.144C96.2181 16.616 96.0101 16.16 95.5941 15.776C95.1781 15.376 94.6101 15.176 93.8901 15.176C93.1701 15.176 92.6101 15.384 92.2101 15.8C91.8101 16.2 91.5381 16.656 91.3941 17.168L88.5381 15.992C88.6661 15.56 88.8741 15.12 89.1621 14.672C89.4501 14.208 89.8181 13.8 90.2661 13.448C90.7141 13.08 91.2421 12.784 91.8501 12.56C92.4741 12.32 93.1701 12.2 93.9381 12.2C94.7701 12.2 95.5221 12.328 96.1941 12.584C96.8661 12.824 97.4341 13.16 97.8981 13.592C98.3621 14.024 98.7221 14.536 98.9781 15.128C99.2341 15.704 99.3621 16.328 99.3621 17C99.3621 18.024 99.1061 18.968 98.5941 19.832C98.0981 20.68 97.4901 21.472 96.7701 22.208L94.7061 24.272C94.1621 24.816 93.5461 25.424 92.8581 26.096L92.9541 26.24H99.6021V29H88.6821ZM112.674 29.384C112.002 29.384 111.354 29.296 110.73 29.12C110.122 28.944 109.562 28.68 109.05 28.328C108.538 27.96 108.082 27.504 107.682 26.96C107.298 26.416 107.002 25.784 106.794 25.064L109.746 23.888C109.954 24.688 110.306 25.296 110.802 25.712C111.298 26.112 111.922 26.312 112.674 26.312C113.01 26.312 113.33 26.264 113.634 26.168C113.938 26.056 114.202 25.904 114.426 25.712C114.65 25.52 114.826 25.296 114.954 25.04C115.098 24.768 115.17 24.464 115.17 24.128C115.17 23.424 114.906 22.872 114.378 22.472C113.866 22.072 113.154 21.872 112.242 21.872H110.826V19.016H112.122C112.442 19.016 112.754 18.976 113.058 18.896C113.362 18.816 113.626 18.696 113.85 18.536C114.09 18.36 114.274 18.144 114.402 17.888C114.546 17.616 114.618 17.304 114.618 16.952C114.618 16.408 114.426 15.968 114.042 15.632C113.658 15.28 113.138 15.104 112.482 15.104C111.778 15.104 111.234 15.296 110.85 15.68C110.482 16.048 110.226 16.464 110.082 16.928L107.202 15.752C107.346 15.352 107.562 14.944 107.85 14.528C108.138 14.096 108.498 13.712 108.93 13.376C109.378 13.024 109.898 12.744 110.49 12.536C111.082 12.312 111.762 12.2 112.53 12.2C113.314 12.2 114.026 12.312 114.666 12.536C115.322 12.76 115.882 13.072 116.346 13.472C116.81 13.856 117.17 14.32 117.426 14.864C117.682 15.392 117.81 15.968 117.81 16.592C117.81 17.072 117.746 17.504 117.618 17.888C117.506 18.272 117.354 18.616 117.162 18.92C116.97 19.224 116.746 19.488 116.49 19.712C116.25 19.92 116.002 20.088 115.746 20.216V20.408C116.514 20.712 117.146 21.2 117.642 21.872C118.154 22.544 118.41 23.392 118.41 24.416C118.41 25.136 118.274 25.8 118.002 26.408C117.73 27 117.338 27.52 116.826 27.968C116.33 28.416 115.73 28.76 115.026 29C114.322 29.256 113.538 29.384 112.674 29.384ZM127.903 29V25.976H120.319V23.432L127.615 12.584H131.023V23.048H133.087V25.976H131.023V29H127.903ZM127.903 17.264H127.711L123.799 23.048H127.903V17.264ZM140.94 29.384C140.316 29.384 139.692 29.296 139.068 29.12C138.46 28.944 137.892 28.672 137.364 28.304C136.836 27.936 136.372 27.48 135.972 26.936C135.588 26.376 135.3 25.712 135.108 24.944L137.964 23.84C138.14 24.64 138.476 25.28 138.972 25.76C139.484 26.24 140.132 26.48 140.916 26.48C141.3 26.48 141.652 26.416 141.972 26.288C142.308 26.144 142.596 25.952 142.836 25.712C143.092 25.472 143.284 25.192 143.412 24.872C143.556 24.536 143.628 24.168 143.628 23.768C143.628 23.384 143.556 23.032 143.412 22.712C143.284 22.376 143.1 22.088 142.86 21.848C142.62 21.592 142.332 21.4 141.996 21.272C141.676 21.128 141.316 21.056 140.916 21.056C140.42 21.056 139.98 21.168 139.596 21.392C139.212 21.6 138.884 21.864 138.612 22.184L135.564 20.792L136.524 12.584H145.764V15.344H139.14L138.516 19.184L138.708 19.232C139.028 18.96 139.42 18.728 139.884 18.536C140.348 18.344 140.908 18.248 141.564 18.248C142.252 18.248 142.908 18.384 143.532 18.656C144.156 18.912 144.708 19.28 145.188 19.76C145.668 20.24 146.052 20.824 146.34 21.512C146.628 22.184 146.772 22.936 146.772 23.768C146.772 24.584 146.628 25.336 146.34 26.024C146.052 26.712 145.644 27.304 145.116 27.8C144.604 28.296 143.988 28.688 143.268 28.976C142.564 29.248 141.788 29.384 140.94 29.384ZM160.931 18.44C161.555 18.44 162.163 18.576 162.755 18.848C163.347 19.104 163.875 19.464 164.339 19.928C164.803 20.392 165.171 20.952 165.443 21.608C165.731 22.264 165.875 22.984 165.875 23.768C165.875 24.584 165.715 25.336 165.395 26.024C165.075 26.712 164.643 27.304 164.099 27.8C163.571 28.296 162.955 28.688 162.251 28.976C161.563 29.248 160.835 29.384 160.067 29.384C159.171 29.384 158.363 29.232 157.643 28.928C156.923 28.608 156.299 28.192 155.771 27.68C155.259 27.152 154.859 26.544 154.571 25.856C154.299 25.152 154.163 24.416 154.163 23.648C154.163 22.544 154.379 21.536 154.811 20.624C155.259 19.696 155.819 18.752 156.491 17.792L160.475 12.104L162.899 13.784L159.539 18.536L159.659 18.68C160.027 18.52 160.451 18.44 160.931 18.44ZM160.019 26.48C160.371 26.48 160.715 26.416 161.051 26.288C161.387 26.16 161.683 25.976 161.939 25.736C162.195 25.496 162.395 25.216 162.539 24.896C162.699 24.56 162.779 24.192 162.779 23.792C162.779 23.392 162.699 23.024 162.539 22.688C162.395 22.352 162.195 22.064 161.939 21.824C161.683 21.584 161.387 21.4 161.051 21.272C160.715 21.144 160.371 21.08 160.019 21.08C159.651 21.08 159.299 21.144 158.963 21.272C158.643 21.4 158.347 21.584 158.075 21.824C157.819 22.064 157.611 22.352 157.451 22.688C157.307 23.024 157.235 23.392 157.235 23.792C157.235 24.192 157.307 24.56 157.451 24.896C157.611 25.216 157.819 25.496 158.075 25.736C158.347 25.976 158.643 26.16 158.963 26.288C159.299 26.416 159.651 26.48 160.019 26.48ZM168.361 27.92L175.201 15.704L175.129 15.56H167.569L167.617 12.584H178.753V15.704L171.001 29.384L168.361 27.92ZM186.154 29.384C185.274 29.384 184.466 29.256 183.73 29C183.01 28.744 182.386 28.4 181.858 27.968C181.33 27.52 180.922 27 180.634 26.408C180.346 25.8 180.202 25.144 180.202 24.44C180.202 23.96 180.266 23.512 180.394 23.096C180.538 22.68 180.722 22.304 180.946 21.968C181.186 21.632 181.458 21.336 181.762 21.08C182.066 20.824 182.386 20.608 182.722 20.432V20.24C182.194 19.888 181.73 19.424 181.33 18.848C180.946 18.272 180.754 17.6 180.754 16.832C180.754 16.176 180.89 15.568 181.162 15.008C181.434 14.432 181.81 13.936 182.29 13.52C182.77 13.104 183.338 12.784 183.994 12.56C184.65 12.32 185.37 12.2 186.154 12.2C186.938 12.2 187.658 12.32 188.314 12.56C188.97 12.784 189.538 13.104 190.018 13.52C190.498 13.936 190.874 14.432 191.146 15.008C191.418 15.568 191.554 16.176 191.554 16.832C191.554 17.6 191.354 18.272 190.954 18.848C190.57 19.424 190.114 19.888 189.586 20.24V20.432C189.922 20.608 190.242 20.824 190.546 21.08C190.85 21.336 191.114 21.632 191.338 21.968C191.578 22.304 191.762 22.68 191.89 23.096C192.034 23.512 192.106 23.96 192.106 24.44C192.106 25.144 191.962 25.8 191.674 26.408C191.386 27 190.978 27.52 190.45 27.968C189.922 28.4 189.29 28.744 188.554 29C187.834 29.256 187.034 29.384 186.154 29.384ZM186.154 19.064C186.826 19.064 187.386 18.88 187.834 18.512C188.282 18.128 188.506 17.632 188.506 17.024C188.506 16.4 188.282 15.912 187.834 15.56C187.386 15.192 186.826 15.008 186.154 15.008C185.482 15.008 184.922 15.192 184.474 15.56C184.026 15.912 183.802 16.4 183.802 17.024C183.802 17.632 184.026 18.128 184.474 18.512C184.922 18.88 185.482 19.064 186.154 19.064ZM186.154 26.48C186.97 26.48 187.642 26.272 188.17 25.856C188.698 25.424 188.962 24.848 188.962 24.128C188.962 23.792 188.89 23.488 188.746 23.216C188.602 22.928 188.402 22.68 188.146 22.472C187.906 22.264 187.61 22.104 187.258 21.992C186.922 21.88 186.554 21.824 186.154 21.824C185.754 21.824 185.378 21.88 185.026 21.992C184.69 22.104 184.394 22.264 184.138 22.472C183.898 22.68 183.706 22.928 183.562 23.216C183.418 23.488 183.346 23.792 183.346 24.128C183.346 24.848 183.61 25.424 184.138 25.856C184.666 26.272 185.338 26.48 186.154 26.48Z" fill="#8EBBFF"/>
<circle cx="21" cy="21" r="21" fill="url(#paint0_linear_224_5)"/>
<path d="M25.1774 22.612C24.7224 22.5141 24.3624 22.7254 24.0437 22.9099C23.7173 23.1 23.0966 23.6035 22.7408 23.4746C20.9193 22.7247 19.2062 21.1304 18.4646 19.3016C18.3338 18.9382 18.835 18.3136 19.0237 17.9833C19.2069 17.6636 19.4137 17.3002 19.3194 16.8418C19.2341 16.4298 18.1311 15.0264 17.7411 14.6426C17.4839 14.3891 17.2204 14.2496 16.9499 14.2271C15.9329 14.1834 14.7971 15.5404 14.5979 15.8651C14.0988 16.5573 14.1016 17.4784 14.6063 18.5952C15.8225 21.5951 20.4224 26.1224 23.4335 27.3843C23.9892 27.6442 24.4973 27.7745 24.9537 27.7745C25.4004 27.7745 25.7981 27.6498 26.1399 27.4026C26.3978 27.2541 27.8104 26.0619 27.7733 25.0175C27.751 24.7513 27.6119 24.4852 27.3617 24.2274C26.9807 23.8338 25.5863 22.6979 25.1774 22.612Z" fill="white"/>
<defs>
<linearGradient id="paint0_linear_224_5" x1="48.4355" y1="44.371" x2="-9.82258" y2="-3.3871" gradientUnits="userSpaceOnUse">
<stop stop-color="#8EBBFF"/>
<stop offset="1" stop-color="#8EBBFF" stop-opacity="0.43"/>
</linearGradient>
</defs>
</svg>
