<svg width="110" height="110" viewBox="0 0 110 110" fill="none" xmlns="http://www.w3.org/2000/svg">
<path fill-rule="evenodd" clip-rule="evenodd" d="M55 109.167C25.1 109.167 0.833344 84.9548 0.833344 55.0006C0.833344 25.1007 25.1 0.833984 55 0.833984C84.9542 0.833984 109.167 25.1007 109.167 55.0006C109.167 84.9548 84.9542 109.167 55 109.167ZM72.2792 75.0965C72.9292 75.4756 73.6333 75.6923 74.3916 75.6923C75.7458 75.6923 77.1 74.9881 77.8583 73.6881C78.9958 71.7923 78.4 69.3006 76.45 68.1089L57.1666 56.6256V31.6006C57.1666 29.3256 55.325 27.5381 53.1041 27.5381C50.8833 27.5381 49.0416 29.3256 49.0416 31.6006V58.9548C49.0416 60.3631 49.8 61.6631 51.0458 62.4215L72.2792 75.0965Z" fill="url(#paint0_linear_7_138)"/>
<defs>
<linearGradient id="paint0_linear_7_138" x1="0.999996" y1="-40" x2="137" y2="180" gradientUnits="userSpaceOnUse">
<stop stop-color="#FFF5C0"/>
<stop offset="1" stop-color="#FFE769"/>
</linearGradient>
</defs>
</svg>
